<?xml version="1.0" encoding="UTF-8"?>
<svg version="1.1" xmlns="http://www.w3.org/2000/svg" width="273" height="185">
<path d="M0 0 C90.09 0 180.18 0 273 0 C273 61.05 273 122.1 273 185 C182.91 185 92.82 185 0 185 C0 123.95 0 62.9 0 0 Z " fill="#FEFDFC" transform="translate(0,0)"/>
<path d="M0 0 C3.625 0.375 3.625 0.375 6.25 2 C7.425625 2.680625 7.425625 2.680625 8.625 3.375 C10.31449614 2.76851421 11.98136866 2.09659424 13.625 1.375 C19.18935792 1.49339059 21.71186178 3.74137165 25.625 7.375 C26.615 6.715 27.605 6.055 28.625 5.375 C30.9375 5.25 30.9375 5.25 33.625 6.375 C34.62881292 7.69580648 35.58259562 9.05527739 36.5 10.4375 C37.93380411 12.65577926 37.93380411 12.65577926 39.625 14.375 C40.800625 14.375 41.97625 14.375 43.1875 14.375 C44.321875 14.375 45.45625 14.375 46.625 14.375 C50.06464206 17.93843381 52.16219591 22.43842302 52.625 27.375 C53.9553125 27.1275 53.9553125 27.1275 55.3125 26.875 C58.625 27.375 58.625 27.375 60.06640625 28.98046875 C61.92804368 31.94241725 63.42630115 34.86072063 64.6875 38.125 C65.5190473 40.5228805 65.5190473 40.5228805 67.625 42.375 C69.8636565 44.6136565 70.5246395 46.44070533 71.625 49.375 C72.58324253 50.73865283 73.57221175 52.08294169 74.625 53.375 C74.9653125 51.5496875 74.9653125 51.5496875 75.3125 49.6875 C76.43535412 45.31913604 78.01772131 43.21477258 81.625 40.375 C83.93156135 39.03815216 86.25297535 37.77981235 88.63671875 36.5859375 C91.28703969 34.97179312 92.40752856 33.20864051 93.1875 30.21875 C93.331875 29.4453125 93.47625 28.671875 93.625 27.875 C94.23215138 24.62240332 94.7229784 23.22803241 96.625 20.375 C97.6975 20.33375 98.77 20.2925 99.875 20.25 C103.60412342 19.77583697 103.60412342 19.77583697 105.171875 17.52734375 C106.16033398 15.93571222 107.1364819 14.33638329 108.1015625 12.73046875 C111.48913885 7.49275454 116.34734249 3.74141677 122.30078125 1.84765625 C137.73294918 -1.29065017 156.20091645 3.61717268 169.625 11.375 C172.41746124 13.24229931 175.06819914 15.19669836 177.625 17.375 C177.295 18.035 176.965 18.695 176.625 19.375 C177.6975 19.9525 178.77 20.53 179.875 21.125 C182.9276529 22.85875824 185.27097393 24.7384908 187.625 27.375 C185.315 27.045 183.005 26.715 180.625 26.375 C181.13289062 26.7875 181.64078125 27.2 182.1640625 27.625 C193.86231282 37.43926244 200.16813957 49.07796554 201.625 64.375 C203.07705325 81.90335707 197.871747 99.97081512 186.94140625 113.65625 C175.85843897 126.66425207 161.74174379 135.70061332 144.625 138.375 C140.87016076 138.66343711 137.13980992 138.70938116 133.375 138.6875 C132.36083008 138.68186035 131.34666016 138.6762207 130.30175781 138.67041016 C109.24151648 138.33007666 96.56028259 129.48753926 82.2578125 114.97265625 C69.07158482 100.84455516 58.01745066 84.40245111 46.97265625 68.5859375 C31.70305159 46.04801158 31.70305159 46.04801158 8.625 33.375 C-4.48382938 31.89447339 -15.50853815 34.9403857 -25.8984375 43.0546875 C-34.78179507 51.37758087 -39.38238354 63.31384223 -39.875 75.375 C-39.46032089 85.83873623 -35.95465322 95.26593586 -29.375 103.375 C-28.87355469 104.00019531 -28.37210938 104.62539062 -27.85546875 105.26953125 C-20.66771957 113.29672559 -10.79466504 116.84269632 -0.375 118.375 C-0.375 124.315 -0.375 130.255 -0.375 136.375 C-10.45314661 136.06960162 -18.24211931 134.63009214 -27.375 130.375 C-28.3340625 129.93027344 -29.293125 129.48554688 -30.28125 129.02734375 C-37.3082888 125.48421604 -42.81971038 120.9118028 -48.375 115.375 C-49.09816406 114.67503906 -49.82132813 113.97507812 -50.56640625 113.25390625 C-61.84049973 101.59473937 -64.30195398 87.48093962 -65.03442383 71.9440918 C-65.17249107 69.06893952 -65.37892363 66.35685635 -65.98828125 63.5390625 C-66.375 61.375 -66.375 61.375 -65 59.125 C-63.33222182 56.30260616 -63.1144281 54.99272981 -62.875 51.8125 C-62.56588655 47.97696981 -61.80361784 46.38648613 -59.375 43.375 C-59.0477006 42.00804369 -58.75948247 40.63143523 -58.5 39.25 C-58.046875 37.1484375 -58.046875 37.1484375 -57.375 35.375 C-54.75 33.875 -54.75 33.875 -52.375 33.375 C-52.33375 32.281875 -52.2925 31.18875 -52.25 30.0625 C-51.375 26.375 -51.375 26.375 -48.4375 24.4375 C-45.375 23.375 -45.375 23.375 -43.375 23.375 C-43.4575 22.611875 -43.54 21.84875 -43.625 21.0625 C-43.375 18.375 -43.375 18.375 -41.8125 16.5625 C-38.57071384 14.98316828 -35.93211122 15.16978204 -32.375 15.375 C-32.41625 14.59125 -32.4575 13.8075 -32.5 13 C-32.375 10.375 -32.375 10.375 -30.375 8.375 C-26.7830695 7.04465537 -23.16029987 7.30220577 -19.375 7.375 C-19.189375 6.4159375 -19.189375 6.4159375 -19 5.4375 C-18.79375 4.756875 -18.5875 4.07625 -18.375 3.375 C-15.10047754 1.73773877 -11.64292661 1.97650878 -8.1875 3.0625 C-7.589375 3.165625 -6.99125 3.26875 -6.375 3.375 C-5.941875 2.900625 -5.50875 2.42625 -5.0625 1.9375 C-3.375 0.375 -3.375 0.375 0 0 Z " fill="#D92826" transform="translate(68.375,2.625)"/>
<path d="M0 0 C3.625 0.375 3.625 0.375 6.25 2 C7.425625 2.680625 7.425625 2.680625 8.625 3.375 C10.31449614 2.76851421 11.98136866 2.09659424 13.625 1.375 C19.18935792 1.49339059 21.71186178 3.74137165 25.625 7.375 C26.615 6.715 27.605 6.055 28.625 5.375 C30.9375 5.25 30.9375 5.25 33.625 6.375 C34.65364863 7.67054125 35.62802052 9.009975 36.5625 10.375 C38.89870226 13.86008606 38.89870226 13.86008606 42.875 15.25 C44.23625 15.311875 44.23625 15.311875 45.625 15.375 C48.08801423 17.83801423 48.39266521 19.64860036 49.25 23 C49.64058594 24.50433594 49.64058594 24.50433594 50.0390625 26.0390625 C50.23242188 26.80992188 50.42578125 27.58078125 50.625 28.375 C52.935 28.375 55.245 28.375 57.625 28.375 C59.53802307 31.64113695 59.98174661 34.36945248 60.25 38.125 C60.36214844 39.60226563 60.36214844 39.60226563 60.4765625 41.109375 C60.52554688 41.85703125 60.57453125 42.6046875 60.625 43.375 C60.955 42.385 61.285 41.395 61.625 40.375 C64 40.875 64 40.875 66.625 42.375 C67.11407354 44.36389906 67.59518191 46.35635655 67.984375 48.3671875 C68.85781262 51.10466882 70.63806022 52.31291498 72.89453125 53.984375 C77.1055506 57.36839958 81.05505479 61.52527394 82.13671875 66.93359375 C82.23762058 72.03301689 81.29335977 76.57846565 79.625 81.375 C78.965 81.045 78.305 80.715 77.625 80.375 C77.625 81.365 77.625 82.355 77.625 83.375 C76.305 83.375 74.985 83.375 73.625 83.375 C73.955 85.355 74.285 87.335 74.625 89.375 C73.965 89.375 73.305 89.375 72.625 89.375 C72.295 90.365 71.965 91.355 71.625 92.375 C70.965 92.375 70.305 92.375 69.625 92.375 C68.965 93.035 68.305 93.695 67.625 94.375 C66.965 93.385 66.305 92.395 65.625 91.375 C64.98103271 91.06054932 64.33706543 90.74609863 63.67358398 90.42211914 C61.20638659 89.16102873 60.35103299 87.93041008 58.84765625 85.62109375 C58.34081299 84.85732422 57.83396973 84.09355469 57.31176758 83.30664062 C56.77575928 82.48357422 56.23975098 81.66050781 55.6875 80.8125 C39.41365963 55.35624815 39.41365963 55.35624815 16.625 36.375 C16.01527344 36.03726563 15.40554687 35.69953125 14.77734375 35.3515625 C6.69052256 31.60861766 -3.21901566 32.43379847 -11.5625 34.875 C-22.54649891 39.07821025 -30.26596806 45.76820543 -35.375 56.375 C-40.35685318 68.41447851 -40.83658108 78.99769873 -36.63671875 91.33203125 C-34.7674826 95.84018901 -32.44396026 99.59267367 -29.375 103.375 C-28.87355469 104.00019531 -28.37210938 104.62539062 -27.85546875 105.26953125 C-20.66771957 113.29672559 -10.79466504 116.84269632 -0.375 118.375 C-0.375 124.315 -0.375 130.255 -0.375 136.375 C-10.45314661 136.06960162 -18.24211931 134.63009214 -27.375 130.375 C-28.3340625 129.93027344 -29.293125 129.48554688 -30.28125 129.02734375 C-37.3082888 125.48421604 -42.81971038 120.9118028 -48.375 115.375 C-49.09816406 114.67503906 -49.82132813 113.97507812 -50.56640625 113.25390625 C-61.84049973 101.59473937 -64.30195398 87.48093962 -65.03442383 71.9440918 C-65.17249107 69.06893952 -65.37892363 66.35685635 -65.98828125 63.5390625 C-66.375 61.375 -66.375 61.375 -65 59.125 C-63.33222182 56.30260616 -63.1144281 54.99272981 -62.875 51.8125 C-62.56588655 47.97696981 -61.80361784 46.38648613 -59.375 43.375 C-59.0477006 42.00804369 -58.75948247 40.63143523 -58.5 39.25 C-58.046875 37.1484375 -58.046875 37.1484375 -57.375 35.375 C-54.75 33.875 -54.75 33.875 -52.375 33.375 C-52.33375 32.281875 -52.2925 31.18875 -52.25 30.0625 C-51.375 26.375 -51.375 26.375 -48.4375 24.4375 C-45.375 23.375 -45.375 23.375 -43.375 23.375 C-43.4575 22.611875 -43.54 21.84875 -43.625 21.0625 C-43.375 18.375 -43.375 18.375 -41.8125 16.5625 C-38.57071384 14.98316828 -35.93211122 15.16978204 -32.375 15.375 C-32.41625 14.59125 -32.4575 13.8075 -32.5 13 C-32.375 10.375 -32.375 10.375 -30.375 8.375 C-26.7830695 7.04465537 -23.16029987 7.30220577 -19.375 7.375 C-19.189375 6.4159375 -19.189375 6.4159375 -19 5.4375 C-18.79375 4.756875 -18.5875 4.07625 -18.375 3.375 C-15.10047754 1.73773877 -11.64292661 1.97650878 -8.1875 3.0625 C-7.589375 3.165625 -6.99125 3.26875 -6.375 3.375 C-5.941875 2.900625 -5.50875 2.42625 -5.0625 1.9375 C-3.375 0.375 -3.375 0.375 0 0 Z " fill="#DF2926" transform="translate(68.375,2.625)"/>
<path d="M0 0 C11.27185659 8.52390397 19.3863175 19.56976191 27.43359375 31.01171875 C29.28709288 33.64500531 31.17617742 36.21888944 33.19140625 38.73046875 C33.93777344 39.6740625 34.68414062 40.61765625 35.453125 41.58984375 C36.10152344 42.37875 36.74992187 43.16765625 37.41796875 43.98046875 C38.515625 46.33984375 38.515625 46.33984375 37.70703125 49.63671875 C37.31386719 50.52875 36.92070313 51.42078125 36.515625 52.33984375 C35.030625 51.84484375 35.030625 51.84484375 33.515625 51.33984375 C33.845625 51.99984375 34.175625 52.65984375 34.515625 53.33984375 C34.58655342 55.54713605 34.59977525 57.75651827 34.578125 59.96484375 C34.56910156 61.15335937 34.56007813 62.341875 34.55078125 63.56640625 C34.53917969 64.48164062 34.52757813 65.396875 34.515625 66.33984375 C33.855625 66.33984375 33.195625 66.33984375 32.515625 66.33984375 C32.515625 62.37984375 32.515625 58.41984375 32.515625 54.33984375 C31.855625 54.33984375 31.195625 54.33984375 30.515625 54.33984375 C30.845625 54.99984375 31.175625 55.65984375 31.515625 56.33984375 C31.58513041 57.88008371 31.60014857 59.42319363 31.578125 60.96484375 C31.56910156 61.78210938 31.56007813 62.599375 31.55078125 63.44140625 C31.53917969 64.06789063 31.52757813 64.694375 31.515625 65.33984375 C29.515625 62.33984375 29.515625 62.33984375 29.890625 59.65234375 C30.096875 58.88921875 30.303125 58.12609375 30.515625 57.33984375 C29.525625 57.33984375 28.535625 57.33984375 27.515625 57.33984375 C27.845625 59.31984375 28.175625 61.29984375 28.515625 63.33984375 C27.525625 63.33984375 26.535625 63.33984375 25.515625 63.33984375 C25.515625 64.32984375 25.515625 65.31984375 25.515625 66.33984375 C23.865625 65.67984375 22.215625 65.01984375 20.515625 64.33984375 C20.020625 70.27984375 20.020625 70.27984375 19.515625 76.33984375 C22.155625 76.33984375 24.795625 76.33984375 27.515625 76.33984375 C27.515625 76.66984375 27.515625 76.99984375 27.515625 77.33984375 C16.295625 77.33984375 5.075625 77.33984375 -6.484375 77.33984375 C-6.484375 77.99984375 -6.484375 78.65984375 -6.484375 79.33984375 C-5.164375 79.66984375 -3.844375 79.99984375 -2.484375 80.33984375 C-6.42161569 80.45771163 -10.35839261 80.52764549 -14.296875 80.58984375 C-15.39708984 80.62335938 -16.49730469 80.656875 -17.63085938 80.69140625 C-29.01455268 80.82572711 -37.92411813 77.88232061 -46.484375 70.33984375 C-47.10183594 69.81519531 -47.71929687 69.29054688 -48.35546875 68.75 C-56.92137298 60.92094775 -61.41611748 49.1250023 -61.984375 37.65234375 C-61.64915638 26.32778429 -57.23358657 14.64570946 -49.484375 6.33984375 C-35.64864433 -6.22815805 -16.22324687 -10.84100616 0 0 Z " fill="#FEFDFD" transform="translate(89.484375,40.66015625)"/>
<path d="M0 0 C9.73870257 -0.98925873 18.09116471 1.55824411 26.09765625 7.171875 C33.45073526 13.38685968 37.31314618 19.77161665 39.8125 29 C39.874375 29.99 39.93625 30.98 40 32 C40.061875 32.78632812 40.12375 33.57265625 40.1875 34.3828125 C40.73293564 46.34830685 36.43082504 56.93715285 28.41015625 65.74609375 C21.96314059 71.82904265 14.78198851 74.21818867 6 74.4375 C-7.58470064 73.98124245 -17.10074196 68.62581904 -26.46875 58.9609375 C-31.56748436 52.99667725 -36.04459012 46.54156042 -40.51489258 40.09887695 C-41.47790363 38.73786988 -42.46876397 37.3959876 -43.4909668 36.07885742 C-46.26594834 32.4723141 -47.62658489 30.14813942 -47.3125 25.5625 C-47.26738281 24.69753906 -47.22226563 23.83257812 -47.17578125 22.94140625 C-47.11777344 22.30074219 -47.05976563 21.66007812 -47 21 C-46.39671875 21.32742187 -45.7934375 21.65484375 -45.171875 21.9921875 C-42.62452701 23.17423027 -40.77587962 23.15421553 -38 23 C-38.99 22.34 -39.98 21.68 -41 21 C-41 20.34 -41 19.68 -41 19 C-39.5459375 19.0309375 -39.5459375 19.0309375 -38.0625 19.0625 C-35.12534105 19.35618499 -35.12534105 19.35618499 -34 18 C-34.66 17.67 -35.32 17.34 -36 17 C-36 16.34 -36 15.68 -36 15 C-34.02 15 -32.04 15 -30 15 C-29.34 13.02 -28.68 11.04 -28 9 C-27.01 10.485 -27.01 10.485 -26 12 C-25.29875 12.804375 -24.5975 13.60875 -23.875 14.4375 C-20.73484526 19.00816967 -21.69185016 24.71009449 -22 30 C-24.97 30.66 -27.94 31.32 -31 32 C-29.845 32.804375 -28.69 33.60875 -27.5 34.4375 C-26.8503125 34.88996094 -26.200625 35.34242187 -25.53125 35.80859375 C-22.02539521 37.45872602 -18.85346086 37.64784549 -15 38 C-14.73445313 36.70964844 -14.46890625 35.41929688 -14.1953125 34.08984375 C-13.83867809 32.3723675 -13.48189961 30.65492116 -13.125 28.9375 C-12.95097656 28.08994141 -12.77695313 27.24238281 -12.59765625 26.36914062 C-9.6977227 12.46020008 -9.6977227 12.46020008 -6.0625 10.0625 C-1.85904605 7.23160244 -1.4329251 4.776417 0 0 Z " fill="#FDFCFC" transform="translate(197,35)"/>
<path d="M0 0 C3.64610234 2.72503912 6.83009058 5.73952174 10 9 C10.65355469 9.64453125 11.30710937 10.2890625 11.98046875 10.953125 C19.09460148 18.40462898 24.43278718 27.37723525 30 36 C29.505 36.99 29.505 36.99 29 38 C28.24976562 36.97261719 27.49953125 35.94523437 26.7265625 34.88671875 C14.49287921 17.72199091 14.49287921 17.72199091 -2 5 C-2.60972656 4.66226563 -3.21945313 4.32453125 -3.84765625 3.9765625 C-11.93447744 0.23361766 -21.84401566 1.05879847 -30.1875 3.5 C-41.19050223 7.71048219 -48.85915307 14.39700321 -54 25 C-58.36402748 34.96193178 -58.45903613 44.35291188 -58 55 C-62.6064277 48.09035845 -61.82680047 38.0535817 -61 30 C-58.28661522 18.51374336 -51.65856153 8.79214972 -42 2 C-29.68719666 -5.38768201 -12.79780567 -7.38106001 0 0 Z " fill="#F3AE30" transform="translate(87,34)"/>
<path d="M0 0 C5.28 0 10.56 0 16 0 C16 4.29 16 8.58 16 13 C15.34 13 14.68 13 14 13 C13.67 13.99 13.34 14.98 13 16 C10.36 16 7.72 16 5 16 C5 16.66 5 17.32 5 18 C3.02 18 1.04 18 -1 18 C-1 18.99 -1 19.98 -1 21 C-5.62 21 -10.24 21 -15 21 C-15 15.06 -15 9.12 -15 3 C-10.05 2.67 -5.1 2.34 0 2 C0 1.34 0 0.68 0 0 Z " fill="#F09995" transform="translate(83,118)"/>
<path d="M0 0 C2.45862401 -0.05383848 4.9160755 -0.09359038 7.375 -0.125 C8.42300781 -0.15013672 8.42300781 -0.15013672 9.4921875 -0.17578125 C11.32897486 -0.19344267 13.16601963 -0.10303261 15 0 C17 2 17 2 17.08203125 3.92578125 C14.9566331 22.74633585 14.9566331 22.74633585 11.37890625 26.8671875 C8.02586603 28.46387332 4.87669546 28.32118726 1.25 28.1875 C0.55261719 28.17396484 -0.14476562 28.16042969 -0.86328125 28.14648438 C-2.57585541 28.1112945 -4.28802941 28.05749155 -6 28 C-5.5286045 18.25782625 -2.74524722 9.29939832 0 0 Z " fill="#E7642A" transform="translate(144,154)"/>
<path d="M0 0 C1.05445313 0.00386719 2.10890625 0.00773438 3.1953125 0.01171875 C5.875 0.3125 5.875 0.3125 7.875 2.3125 C8.42900575 10.91805598 5.07210827 20.07589877 2.875 28.3125 C0.565 28.3125 -1.745 28.3125 -4.125 28.3125 C-3.795 26.0025 -3.465 23.6925 -3.125 21.3125 C-4.445 21.3125 -5.765 21.3125 -7.125 21.3125 C-7.455 23.6225 -7.785 25.9325 -8.125 28.3125 C-10.435 28.3125 -12.745 28.3125 -15.125 28.3125 C-14.70157862 22.38460064 -13.66412369 16.71380317 -12.3125 10.9375 C-12.15942383 10.23560547 -12.00634766 9.53371094 -11.84863281 8.81054688 C-11.1228167 5.83541944 -10.43204071 3.65509999 -8.37109375 1.35546875 C-5.45388202 0.00086783 -3.20784689 -0.05123097 0 0 Z " fill="#E2342A" transform="translate(198.125,153.6875)"/>
<path d="M0 0 C2.45862401 -0.05383848 4.9160755 -0.09359038 7.375 -0.125 C8.42300781 -0.15013672 8.42300781 -0.15013672 9.4921875 -0.17578125 C11.32897486 -0.19344267 13.16601963 -0.10303261 15 0 C15.66 0.66 16.32 1.32 17 2 C16.811672 7.74400414 16.11754815 10.74962772 12 15 C12.556875 15.7734375 12.556875 15.7734375 13.125 16.5625 C14.43041882 20.19902385 13.36868264 22.48053037 12 26 C9 28 9 28 5 28 C5.33 24.7 5.66 21.4 6 18 C5.01 18 4.02 18 3 18 C2.34 21.3 1.68 24.6 1 28 C-1.31 28 -3.62 28 -6 28 C-6.30425709 18.33621534 -3.21183549 9.02372828 0 0 Z " fill="#E65639" transform="translate(167,154)"/>
<path d="M0 0 C2.64 0 5.28 0 8 0 C7.34 3.3 6.68 6.6 6 10 C6.99 9.67 7.98 9.34 9 9 C10.02281518 6.90280128 10.02281518 6.90280128 10.6875 4.4375 C10.93886719 3.61121094 11.19023438 2.78492188 11.44921875 1.93359375 C11.63097656 1.29550781 11.81273438 0.65742188 12 0 C14.31 0 16.62 0 19 0 C18.18907856 4.08364847 17.37599007 8.16686251 16.5625 12.25 C16.33240234 13.40886719 16.10230469 14.56773437 15.86523438 15.76171875 C15.53168945 17.43427734 15.53168945 17.43427734 15.19140625 19.140625 C14.88505249 20.68024902 14.88505249 20.68024902 14.57250977 22.25097656 C14.10025013 24.51862839 13.58369814 26.75897419 13 29 C10.36 29 7.72 29 5 29 C5.66 25.37 6.32 21.74 7 18 C6.01 18.33 5.02 18.66 4 19 C3.19436362 21.10584438 3.19436362 21.10584438 2.8125 23.5625 C2.65394531 24.38878906 2.49539062 25.21507812 2.33203125 26.06640625 C2.22246094 26.70449219 2.11289063 27.34257812 2 28 C-0.31 28 -2.62 28 -5 28 C-4.38277416 18.43299944 -2.1798659 9.30752043 0 0 Z " fill="#EE933C" transform="translate(107,154)"/>
<path d="M0 0 C1.14210938 0.03996094 2.28421875 0.07992187 3.4609375 0.12109375 C4.60820313 0.14300781 5.75546875 0.16492188 6.9375 0.1875 C9.8359375 0.55859375 9.8359375 0.55859375 11.8359375 2.55859375 C11.80306167 5.28728782 11.27195979 7.85525555 10.8359375 10.55859375 C8.1959375 10.55859375 5.5559375 10.55859375 2.8359375 10.55859375 C2.8359375 9.89859375 2.8359375 9.23859375 2.8359375 8.55859375 C1.8459375 8.22859375 0.8559375 7.89859375 -0.1640625 7.55859375 C-0.29683594 8.40164062 -0.42960937 9.2446875 -0.56640625 10.11328125 C-0.74300781 11.20898438 -0.91960937 12.3046875 -1.1015625 13.43359375 C-1.27558594 14.52414063 -1.44960937 15.6146875 -1.62890625 16.73828125 C-2.1640625 19.55859375 -2.1640625 19.55859375 -3.1640625 21.55859375 C-1.8440625 21.55859375 -0.5240625 21.55859375 0.8359375 21.55859375 C0.5059375 19.24859375 0.1759375 16.93859375 -0.1640625 14.55859375 C2.8059375 14.55859375 5.7759375 14.55859375 8.8359375 14.55859375 C8.77546532 16.14296492 8.68654804 17.72626433 8.5859375 19.30859375 C8.51632813 20.63117188 8.51632813 20.63117188 8.4453125 21.98046875 C7.6491641 25.3487889 6.64493832 26.54686709 3.8359375 28.55859375 C0.671875 29.01953125 0.671875 29.01953125 -2.7890625 28.93359375 C-3.93632813 28.92070312 -5.08359375 28.9078125 -6.265625 28.89453125 C-9.1640625 28.55859375 -9.1640625 28.55859375 -11.1640625 26.55859375 C-9.9640866 1.75909183 -9.9640866 1.75909183 0 0 Z " fill="#F4B742" transform="translate(90.1640625,153.44140625)"/>
<path d="M0 0 C4.62310485 4.22545317 6.08318974 9.64944327 6.46875 15.734375 C6.50276241 17.40593645 6.51251489 19.07813939 6.5 20.75 C6.49500488 21.62817383 6.49000977 22.50634766 6.48486328 23.41113281 C6.28863903 30.75939256 4.79509996 36.63467362 1 43 C0.55398437 43.75539062 0.10796875 44.51078125 -0.3515625 45.2890625 C-5.35812012 52.75694453 -12.70277048 57.28362859 -21.33203125 59.53125 C-32.7974827 61.54567778 -42.78888446 59.45828589 -52.50390625 53.18359375 C-54 52 -54 52 -55 50 C-52.65735797 50.37784549 -50.4537812 50.80829019 -48.26171875 51.734375 C-39.3472978 55.40400071 -27.6192192 55.71099268 -18.5 52.5 C-9.34564019 48.03978381 -3.66541839 41.39171458 0 32 C0.36738281 31.0925 0.73476562 30.185 1.11328125 29.25 C2.23690808 25.13168491 2.29253689 21.3715996 2.25 17.125 C2.25773437 16.36058594 2.26546875 15.59617187 2.2734375 14.80859375 C2.25562928 9.56407169 1.44684701 5.04099872 0 0 Z " fill="#F1AC31" transform="translate(235,55)"/>
<path d="M0 0 C15.84910641 1.80589518 30.68088656 5.35183014 43 16 C43 16.33 43 16.66 43 17 C38.32798795 18.20568053 33.78503708 18.09382426 29 18 C29.75 16.0625 29.75 16.0625 31 14 C33.125 13.25 33.125 13.25 35 13 C27.26134446 10.86519847 19.99976044 10.79516972 12 11 C12.375 9.0625 12.375 9.0625 13 7 C13.66 6.67 14.32 6.34 15 6 C6.81539988 5.65171914 0.29501214 7.26353037 -7 11 C-7.66 10.67 -8.32 10.34 -9 10 C-7.66666667 8.66666667 -6.33333333 7.33333333 -5 6 C-4.195625 5.13375 -4.195625 5.13375 -3.375 4.25 C-2 3 -2 3 0 3 C0 2.01 0 1.02 0 0 Z " fill="#87332C" transform="translate(203,4)"/>
<path d="M0 0 C0.33 0 0.66 0 1 0 C1 6.6 1 13.2 1 20 C0.34 20 -0.32 20 -1 20 C-1 20.66 -1 21.32 -1 22 C-1.99 22.33 -2.98 22.66 -4 23 C-4 23.66 -4 24.32 -4 25 C-6.64 25 -9.28 25 -12 25 C-12 24.01 -12 23.02 -12 22 C-12.33 22.99 -12.66 23.98 -13 25 C-11.02 25.33 -9.04 25.66 -7 26 C-7 26.66 -7 27.32 -7 28 C-10.63 28 -14.26 28 -18 28 C-18 24.04 -18 20.08 -18 16 C-17.34 15.67 -16.68 15.34 -16 15 C-15.34 14.01 -14.68 13.02 -14 12 C-14 13.98 -14 15.96 -14 18 C-13.34 16.02 -12.68 14.04 -12 12 C-11.67 12.99 -11.34 13.98 -11 15 C-10.4465236 12.92446352 -10 11.15634036 -10 9 C-9.01 9 -8.02 9 -7 9 C-7 8.01 -7 7.02 -7 6 C-6.34 6 -5.68 6 -5 6 C-5 9.96 -5 13.92 -5 18 C-4.34 18 -3.68 18 -3 18 C-3.33 13.05 -3.66 8.1 -4 3 C-3.01 3 -2.02 3 -1 3 C-0.67 2.01 -0.34 1.02 0 0 Z " fill="#F9DFC6" transform="translate(127,89)"/>
<path d="M0 0 C6.27 0 12.54 0 19 0 C19 0.99 19 1.98 19 3 C19.99 3.33 20.98 3.66 22 4 C22 4.99 22 5.98 22 7 C18.37 7.33 14.74 7.66 11 8 C11 9.32 11 10.64 11 12 C9.35 12.33 7.7 12.66 6 13 C6 13.99 6 14.98 6 16 C7.65 16 9.3 16 11 16 C11 16.66 11 17.32 11 18 C7.37 18 3.74 18 0 18 C0 12.06 0 6.12 0 0 Z " fill="#EF8E88" transform="translate(68,121)"/>
<path d="M0 0 C2.31 0 4.62 0 7 0 C6.35963063 6.62613779 5.29028836 13.04712709 3.9375 19.5625 C3.75123047 20.47580078 3.56496094 21.38910156 3.37304688 22.33007812 C2.91891897 24.55414045 2.461187 26.77739276 2 29 C-0.64 29 -3.28 29 -6 29 C-5.09429888 22.98281324 -3.74324813 17.06487387 -2.4375 11.125 C-2.20353516 10.05507812 -1.96957031 8.98515625 -1.72851562 7.8828125 C-1.15366334 5.25491632 -0.57745176 2.62732597 0 0 Z " fill="#EA7B2E" transform="translate(131,154)"/>
<path d="M0 0 C2.32421875 0.19140625 2.32421875 0.19140625 5 1 C6.58203125 3.21484375 6.58203125 3.21484375 7.8125 5.9375 C8.23144531 6.83339844 8.65039062 7.72929687 9.08203125 8.65234375 C10 11 10 11 10 13 C10.886875 12.835 11.77375 12.67 12.6875 12.5 C16 13 16 13 17.44140625 14.60546875 C19.30304368 17.56741725 20.80130115 20.48572063 22.0625 23.75 C22.8940473 26.1478805 22.8940473 26.1478805 25 28 C27.2386565 30.2386565 27.8996395 32.06570533 29 35 C29.95824253 36.36365283 30.94721175 37.70794169 32 39 C32.33 37.02 32.66 35.04 33 33 C33.33 33 33.66 33 34 33 C34.495 36.96 34.495 36.96 35 41 C35.66 41 36.32 41 37 41 C37.66 39.35 38.32 37.7 39 36 C39.66 36 40.32 36 41 36 C41.33 36.99 41.66 37.98 42 39 C44.31 39.33 46.62 39.66 49 40 C48.505 40.99 48.505 40.99 48 42 C41.125 41.125 41.125 41.125 40 40 C39.505 44.95 39.505 44.95 39 50 C34.74790208 45.87675353 30.86364295 41.48717034 27 37 C26.01 37.495 26.01 37.495 25 38 C24.505 33.05 24.505 33.05 24 28 C22.35 27.34 20.7 26.68 19 26 C18.67 27.32 18.34 28.64 18 30 C17.67 30 17.34 30 17 30 C16.93941406 29.16855469 16.87882812 28.33710937 16.81640625 27.48046875 C16.73261719 26.39378906 16.64882812 25.30710937 16.5625 24.1875 C16.48128906 23.10855469 16.40007812 22.02960937 16.31640625 20.91796875 C16.09787539 17.94010095 16.09787539 17.94010095 15 15 C12.69 14.67 10.38 14.34 8 14 C7.67 14.66 7.34 15.32 7 16 C6.74476562 14.64455078 6.74476562 14.64455078 6.484375 13.26171875 C6.24203125 12.08222656 5.9996875 10.90273438 5.75 9.6875 C5.51796875 8.51574219 5.2859375 7.34398437 5.046875 6.13671875 C3.91290636 2.73904405 3.05284887 1.7471883 0 0 Z " fill="#8A312F" transform="translate(111,17)"/>
<path d="M0 0 C1.14210938 0.03996094 2.28421875 0.07992187 3.4609375 0.12109375 C4.60820313 0.14300781 5.75546875 0.16492188 6.9375 0.1875 C9.8359375 0.55859375 9.8359375 0.55859375 11.8359375 2.55859375 C11.80306167 5.28728782 11.27195979 7.85525555 10.8359375 10.55859375 C8.1959375 10.55859375 5.5559375 10.55859375 2.8359375 10.55859375 C2.8359375 9.89859375 2.8359375 9.23859375 2.8359375 8.55859375 C1.8459375 8.22859375 0.8559375 7.89859375 -0.1640625 7.55859375 C-0.4940625 9.53859375 -0.8240625 11.51859375 -1.1640625 13.55859375 C-2.1540625 13.22859375 -3.1440625 12.89859375 -4.1640625 12.55859375 C-4.4940625 13.21859375 -4.8240625 13.87859375 -5.1640625 14.55859375 C-5.1640625 13.89859375 -5.1640625 13.23859375 -5.1640625 12.55859375 C-6.1540625 12.55859375 -7.1440625 12.55859375 -8.1640625 12.55859375 C-7.68553283 6.45734045 -6.73388271 1.18882127 0 0 Z " fill="#F4B337" transform="translate(90.1640625,153.44140625)"/>
<path d="M0 0 C2.45862401 -0.05383848 4.9160755 -0.09359038 7.375 -0.125 C8.42300781 -0.15013672 8.42300781 -0.15013672 9.4921875 -0.17578125 C11.32897486 -0.19344267 13.16601963 -0.10303261 15 0 C15.66 0.66 16.32 1.32 17 2 C16.96712417 4.72869407 16.43602229 7.2966618 16 10 C12.71303767 10.79953138 11.28976808 11.09658936 8 10 C8.33 9.01 8.66 8.02 9 7 C7.68 7 6.36 7 5 7 C5 8.65 5 10.3 5 12 C3.68 11.67 2.36 11.34 1 11 C1.33 10.34 1.66 9.68 2 9 C0.68 9 -0.64 9 -2 9 C-1.125 2.25 -1.125 2.25 0 0 Z " fill="#E44427" transform="translate(167,154)"/>
<path d="M0 0 C1.32 0 2.64 0 4 0 C3.03644647 9.41002278 3.03644647 9.41002278 2 14 C3.65 14 5.3 14 7 14 C7.33 15.32 7.66 16.64 8 18 C5.38521048 20.56761548 4.05471424 20.9956345 0.328125 21.29296875 C-1.03156035 21.27316751 -2.3910934 21.23759202 -3.75 21.1875 C-4.44738281 21.17396484 -5.14476562 21.16042969 -5.86328125 21.14648438 C-7.57585541 21.1112945 -9.28802941 21.05749155 -11 21 C-11 19.35 -11 17.7 -11 16 C-7.37 16 -3.74 16 0 16 C-0.99 15.67 -1.98 15.34 -3 15 C-2.69052329 13.06201479 -2.37731166 11.12462574 -2.0625 9.1875 C-1.88847656 8.10855469 -1.71445313 7.02960938 -1.53515625 5.91796875 C-1 3 -1 3 0 0 Z " fill="#EA743F" transform="translate(149,161)"/>
<path d="M0 0 C1.06347656 -0.00515625 2.12695312 -0.0103125 3.22265625 -0.015625 C5.9375 0.25 5.9375 0.25 7.9375 2.25 C8.1875 5.25 8.1875 5.25 7.9375 8.25 C7.2775 8.91 6.6175 9.57 5.9375 10.25 C3.3125 9.875 3.3125 9.875 0.9375 9.25 C0.6075 10.24 0.2775 11.23 -0.0625 12.25 C-0.3925 10.6 -0.7225 8.95 -1.0625 7.25 C-4.0325 7.25 -7.0025 7.25 -10.0625 7.25 C-9.75 4.875 -9.75 4.875 -9.0625 2.25 C-5.58864567 -0.06590289 -4.09819994 -0.01991835 0 0 Z " fill="#E22521" transform="translate(198.0625,153.75)"/>
<path d="M0 0 C8.55395637 1.06143984 16.75116332 2.47484591 25 5 C22 7 22 7 19.875 6.625 C18.92625 6.41875 17.9775 6.2125 17 6 C8.14653524 5.36268833 0.87416638 6.96689039 -7 11 C-7.66 10.67 -8.32 10.34 -9 10 C-7.66666667 8.66666667 -6.33333333 7.33333333 -5 6 C-4.195625 5.13375 -4.195625 5.13375 -3.375 4.25 C-2 3 -2 3 0 3 C0 2.01 0 1.02 0 0 Z " fill="#995748" transform="translate(203,4)"/>
<path d="M0 0 C5.28 0 10.56 0 16 0 C16 4.29 16 8.58 16 13 C15.34 13 14.68 13 14 13 C13.67 12.34 13.34 11.68 13 11 C10.47266765 10.34444881 10.47266765 10.34444881 8 10 C7.67 8.35 7.34 6.7 7 5 C6.34 5 5.68 5 5 5 C4.67 4.34 4.34 3.68 4 3 C1.97536745 2.34786708 1.97536745 2.34786708 0 2 C0 1.34 0 0.68 0 0 Z " fill="#F6B7A7" transform="translate(83,118)"/>
<path d="M0 0 C0.99 0 1.98 0 3 0 C3.33 0.66 3.66 1.32 4 2 C5.65 2 7.3 2 9 2 C10.15941038 5.47823115 9.70820884 7.45895578 9 11 C8.030625 10.835 7.06125 10.67 6.0625 10.5 C1.70512237 9.86603727 -2.60630704 9.9103328 -7 10 C-7 9.34 -7 8.68 -7 8 C-5.35 8 -3.7 8 -2 8 C-1.855625 6.865625 -1.71125 5.73125 -1.5625 4.5625 C-1 1 -1 1 0 0 Z " fill="#E33E33" transform="translate(195,161)"/>
<path d="M0 0 C3.28792713 1.03334853 4.88352256 1.86688292 7.1875 4.5 C10.62250885 7.5533412 12.93021357 7.72129397 17.3515625 8.3984375 C21.69419506 9.38481717 25.26711782 11.63764461 29 14 C27 15 27 15 24.75 14.2578125 C23.8425 13.88398437 22.935 13.51015625 22 13.125 C16.63985019 11.07157405 11.71250768 10.24783114 6 10 C5.896875 10.928125 5.79375 11.85625 5.6875 12.8125 C4.96772204 16.14965236 4.42857128 16.83186532 2 19 C2.10699219 18.04738281 2.21398437 17.09476563 2.32421875 16.11328125 C2.50404297 14.23189453 2.50404297 14.23189453 2.6875 12.3125 C2.81511719 11.07113281 2.94273437 9.82976563 3.07421875 8.55078125 C2.99375562 4.70125554 2.26578663 3.04628897 0 0 Z " fill="#742D24" transform="translate(191,25)"/>
<path d="M0 0 C1.98 0 3.96 0 6 0 C5.34 3.3 4.68 6.6 4 10 C6.64 10.33 9.28 10.66 12 11 C12 11.33 12 11.66 12 12 C7.05 12 2.1 12 -3 12 C-3 6.34968203 -2.64694025 4.63214543 0 0 Z " fill="#E86E37" transform="translate(142,166)"/>
<path d="M0 0 C1.65 0 3.3 0 5 0 C6.125 1.5625 6.125 1.5625 7 4 C6.3125 7.625 6.3125 7.625 5 11 C2 13 2 13 -2 13 C-2.23509196 8.18061476 -1.45184478 4.53701494 0 0 Z " fill="#E65134" transform="translate(174,169)"/>
<path d="M0 0 C3.63 0 7.26 0 11 0 C11 1.32 11 2.64 11 4 C9.35 4.33 7.7 4.66 6 5 C6 5.99 6 6.98 6 8 C7.65 8 9.3 8 11 8 C11 8.66 11 9.32 11 10 C7.37 10 3.74 10 0 10 C0 6.7 0 3.4 0 0 Z " fill="#E95F59" transform="translate(68,129)"/>
<path d="M0 0 C1.65 0 3.3 0 5 0 C5 3.63 5 7.26 5 11 C3.68 11 2.36 11 1 11 C1.33 12.98 1.66 14.96 2 17 C1.34 17 0.68 17 0 17 C-0.33 17.99 -0.66 18.98 -1 20 C-1.66 20 -2.32 20 -3 20 C-3.33 14.72 -3.66 9.44 -4 4 C-3.01 3.67 -2.02 3.34 -1 3 C-1.020625 3.804375 -1.04125 4.60875 -1.0625 5.4375 C-1.29633621 7.93354885 -1.29633621 7.93354885 0 9 C0 7.02 0 5.04 0 3 C0.99 4.485 0.99 4.485 2 6 C1.67 6.99 1.34 7.98 1 9 C1.66 9 2.32 9 3 9 C3 6.69 3 4.38 3 2 C2.01 2 1.02 2 0 2 C0 1.34 0 0.68 0 0 Z " fill="#EA7224" transform="translate(141,75)"/>
<path d="M0 0 C2.31 0.33 4.62 0.66 7 1 C6.34 4.63 5.68 8.26 5 12 C2.69 12 0.38 12 -2 12 C-2.21278058 7.53160785 -1.59138085 4.17737474 0 0 Z " fill="#E65639" transform="translate(163,170)"/>
<path d="M0 0 C3.63 0 7.26 0 11 0 C11 1.65 11 3.3 11 5 C10.01 5 9.02 5 8 5 C8 5.66 8 6.32 8 7 C7.34 7 6.68 7 6 7 C5.67 7.99 5.34 8.98 5 10 C3.35 10 1.7 10 0 10 C0 6.7 0 3.4 0 0 Z " fill="#F3A78B" transform="translate(100,118)"/>
<path d="M0 0 C1.98 0 3.96 0 6 0 C7.37432457 3.81756824 6.67975039 7.07255329 6 11 C3.36 11 0.72 11 -2 11 C-1.40049704 7.31733897 -0.75241109 3.65456815 0 0 Z " fill="#ED823B" transform="translate(127,172)"/>
<path d="M0 0 C4.29 0 8.58 0 13 0 C13 1.65 13 3.3 13 5 C10.36 5 7.72 5 5 5 C5 5.66 5 6.32 5 7 C3.35 7 1.7 7 0 7 C0 4.69 0 2.38 0 0 Z " fill="#F0948B" transform="translate(83,129)"/>
<path d="M0 0 C0.99 1.32 1.98 2.64 3 4 C-0.3 4 -3.6 4 -7 4 C-6.34 5.65 -5.68 7.3 -5 9 C-9.95 9 -14.9 9 -20 9 C-20 8.01 -20 7.02 -20 6 C-16.32589215 4.82428549 -12.83070817 4.92633254 -9 5 C-8.87625 4.360625 -8.7525 3.72125 -8.625 3.0625 C-8.41875 2.381875 -8.2125 1.70125 -8 1 C-5.17116253 -0.41441874 -3.12623255 -0.31900332 0 0 Z " fill="#C26B49" transform="translate(58,5)"/>
<path d="M0 0 C2.31 0 4.62 0 7 0 C6.34 3.3 5.68 6.6 5 10 C2.69 9.67 0.38 9.34 -2 9 C-1.125 2.25 -1.125 2.25 0 0 Z " fill="#ED8D2D" transform="translate(119,154)"/>
<path d="M0 0 C0.33 0.66 0.66 1.32 1 2 C6.28 2 11.56 2 17 2 C17.33 2.66 17.66 3.32 18 4 C14.41717765 6.38854824 12.68606967 6.26898802 8.4375 6.25 C6.70306641 6.25773438 6.70306641 6.25773438 4.93359375 6.265625 C2 6 2 6 0 4 C0 2.68 0 1.36 0 0 Z " fill="#F5B94D" transform="translate(79,176)"/>
<path d="M0 0 C0.66 0.33 1.32 0.66 2 1 C2.59355614 3.64860427 2.74209269 6.29197322 3 9 C1.29159719 7.36587557 0.06546953 6.13093906 -1 4 C-1.66 5.65 -2.32 7.3 -3 9 C-4.98 9 -6.96 9 -9 9 C-9 9.66 -9 10.32 -9 11 C-8.01 11.33 -7.02 11.66 -6 12 C-6.66 12.66 -7.32 13.32 -8 14 C-11.125 13.625 -11.125 13.625 -14 13 C-14.33 13.66 -14.66 14.32 -15 15 C-15 13.35 -15 11.7 -15 10 C-12.525 10.99 -12.525 10.99 -10 12 C-10.33 10.68 -10.66 9.36 -11 8 C-9.88625 7.5875 -8.7725 7.175 -7.625 6.75 C-4.61984238 5.48713876 -4.61984238 5.48713876 -2.6875 2.875 C-2.460625 2.25625 -2.23375 1.6375 -2 1 C-1.34 0.67 -0.68 0.34 0 0 Z " fill="#6F2D24" transform="translate(170,41)"/>
<path d="M0 0 C0.33 0 0.66 0 1 0 C1.33 2.64 1.66 5.28 2 8 C2.66 8 3.32 8 4 8 C4.66 6.35 5.32 4.7 6 3 C6.66 3 7.32 3 8 3 C8.33 3.99 8.66 4.98 9 6 C11.31 6.33 13.62 6.66 16 7 C15.67 7.66 15.34 8.32 15 9 C8.125 8.125 8.125 8.125 7 7 C6.67 10.3 6.34 13.6 6 17 C2.64029566 14.76019711 2.31304575 13.65777032 1 10 C0.67 9.67 0.34 9.34 0 9 C-0.07179964 7.48071962 -0.08392007 5.95832518 -0.0625 4.4375 C-0.05347656 3.61121094 -0.04445312 2.78492188 -0.03515625 1.93359375 C-0.02355469 1.29550781 -0.01195312 0.65742187 0 0 Z " fill="#895750" transform="translate(144,50)"/>
<path d="M0 0 C0.33 0 0.66 0 1 0 C1 6.6 1 13.2 1 20 C0.34 20 -0.32 20 -1 20 C-1 20.66 -1 21.32 -1 22 C-1.99 22 -2.98 22 -4 22 C-4 15.73 -4 9.46 -4 3 C-3.01 3 -2.02 3 -1 3 C-0.67 2.01 -0.34 1.02 0 0 Z " fill="#FADFB0" transform="translate(127,89)"/>
<path d="M0 0 C1.32 0 2.64 0 4 0 C3.58846263 4.97093824 3.20399168 9.44508386 1 14 C0.01 14 -0.98 14 -2 14 C-1.85866501 12.22880197 -1.71176792 10.45804713 -1.5625 8.6875 C-1.48128906 7.70136719 -1.40007812 6.71523437 -1.31640625 5.69921875 C-1 3 -1 3 0 0 Z " fill="#FCF0ED" transform="translate(149,161)"/>
<path d="M0 0 C1.32 0 2.64 0 4 0 C4.33 0.99 4.66 1.98 5 3 C7.00016466 4.20882096 7.00016466 4.20882096 9 5 C7.8125 6.5 7.8125 6.5 6 8 C3.3125 8.1875 3.3125 8.1875 1 8 C0.67 8.66 0.34 9.32 0 10 C0 9.34 0 8.68 0 8 C-2.31 8 -4.62 8 -7 8 C-7 7.67 -7 7.34 -7 7 C-4.69 7 -2.38 7 0 7 C0 4.69 0 2.38 0 0 Z " fill="#EB725B" transform="translate(172,161)"/>
<path d="M0 0 C1.42944945 2.35438733 2.08661261 3.48032433 1.625 6.25 C1.41875 6.8275 1.2125 7.405 1 8 C-1.64 8 -4.28 8 -7 8 C-6.67 5.69 -6.34 3.38 -6 1 C-4.02 0.67 -2.04 0.34 0 0 Z " fill="#F0A057" transform="translate(119,175)"/>
<path d="M0 0 C1.66701674 0.33157815 3.33359652 0.6653534 5 1 C7.43666765 1.06701506 9.87501742 1.08528021 12.3125 1.0625 C13.56675781 1.05347656 14.82101563 1.04445313 16.11328125 1.03515625 C17.06589844 1.02355469 18.01851562 1.01195312 19 1 C19 1.33 19 1.66 19 2 C18.16597656 2.10957031 17.33195312 2.21914062 16.47265625 2.33203125 C10.3921948 3.18872857 4.66919632 4.18012497 -1.09765625 6.31640625 C-3.04455561 7.01601074 -4.98676967 7.52920003 -7 8 C-5.68334336 6.32012773 -4.34736973 4.65533995 -3 3 C-2.525625 2.38125 -2.05125 1.7625 -1.5625 1.125 C-1.046875 0.75375 -0.53125 0.3825 0 0 Z " fill="#E37B50" transform="translate(201,7)"/>
<path d="M0 0 C2.31 0 4.62 0 7 0 C7 0.99 7 1.98 7 3 C5.70794169 4.05278825 4.36365283 5.04175747 3 6 C2.175 6.845625 1.35 7.69125 0.5 8.5625 C-1.67207574 10.68027384 -3.23316757 11.87277197 -6 13 C-5.42274324 9.10351684 -3.68124732 6.8302055 -1 4 C1.75 2.6875 1.75 2.6875 4 2 C2.68 1.34 1.36 0.68 0 0 Z " fill="#8D2324" transform="translate(196,4)"/>
<path d="M0 0 C0.33 0.66 0.66 1.32 1 2 C2.98 2 4.96 2 7 2 C6.67 4.31 6.34 6.62 6 9 C3.69 9 1.38 9 -1 9 C-0.67 6.03 -0.34 3.06 0 0 Z " fill="#E34336" transform="translate(184,173)"/>
<path d="M0 0 C0.33 0.66 0.66 1.32 1 2 C1.66 2.33 2.32 2.66 3 3 C2.67 3.99 2.34 4.98 2 6 C4.97 6.495 4.97 6.495 8 7 C8 7.66 8 8.32 8 9 C4.37 9 0.74 9 -3 9 C-3 6.36 -3 3.72 -3 1 C-2.01 0.67 -1.02 0.34 0 0 Z " fill="#F5C09F" transform="translate(112,108)"/>
<path d="M0 0 C2.31 0 4.62 0 7 0 C6.67 2.31 6.34 4.62 6 7 C3.69 7 1.38 7 -1 7 C-0.67 4.69 -0.34 2.38 0 0 Z " fill="#E33E31" transform="translate(195,175)"/>
<path d="M0 0 C2.64 0 5.28 0 8 0 C7.34 2.97 6.68 5.94 6 9 C5.67 8.01 5.34 7.02 5 6 C3.35 6 1.7 6 0 6 C0 4.02 0 2.04 0 0 Z " fill="#EB823B" transform="translate(128,166)"/>
<path d="M0 0 C1.65 0 3.3 0 5 0 C5 1.65 5 3.3 5 5 C4.01 5.495 4.01 5.495 3 6 C2.34 5.67 1.68 5.34 1 5 C1.33 6.32 1.66 7.64 2 9 C1.01 9.33 0.02 9.66 -1 10 C-2.5625 7.625 -2.5625 7.625 -4 5 C-3.67 4.34 -3.34 3.68 -3 3 C-2.34 3 -1.68 3 -1 3 C-0.67 2.01 -0.34 1.02 0 0 Z " fill="#F7E2B6" transform="translate(156,63)"/>
<path d="M0 0 C1.65 0 3.3 0 5 0 C5 3.3 5 6.6 5 10 C4.34 10 3.68 10 3 10 C2.67 9.34 2.34 8.68 2 8 C-0.52733235 7.34444881 -0.52733235 7.34444881 -3 7 C-3 6.34 -3 5.68 -3 5 C-2.01 4.34 -1.02 3.68 0 3 C0 2.01 0 1.02 0 0 Z " fill="#F4A791" transform="translate(94,121)"/>
<path d="M0 0 C1.50433594 0.01353516 1.50433594 0.01353516 3.0390625 0.02734375 C3.80992187 0.03894531 4.58078125 0.05054688 5.375 0.0625 C5.375 1.3825 5.375 2.7025 5.375 4.0625 C0.755 4.3925 -3.865 4.7225 -8.625 5.0625 C-8.295 3.7425 -7.965 2.4225 -7.625 1.0625 C-4.98041621 -0.25979189 -2.94738699 -0.03427194 0 0 Z " fill="#832C28" transform="translate(223.625,9.9375)"/>
<path d="M0 0 C0.33 0.66 0.66 1.32 1 2 C1.66 2 2.32 2 3 2 C3.33 1.34 3.66 0.68 4 0 C4 1.32 4 2.64 4 4 C4.66 4.33 5.32 4.66 6 5 C5.34 5 4.68 5 4 5 C4 5.66 4 6.32 4 7 C5.65 7 7.3 7 9 7 C9 7.33 9 7.66 9 8 C0.75 8 -7.5 8 -16 8 C-16 7.67 -16 7.34 -16 7 C-9.73 7 -3.46 7 3 7 C3 6.34 3 5.68 3 5 C1.02 5 -0.96 5 -3 5 C-2.01 4.34 -1.02 3.68 0 3 C0 2.01 0 1.02 0 0 Z " fill="#FCECEA" transform="translate(87,121)"/>
<path d="M0 0 C3.3 0 6.6 0 10 0 C10 1.32 10 2.64 10 4 C6.7 4 3.4 4 0 4 C0 2.68 0 1.36 0 0 Z " fill="#ED7F79" transform="translate(69,121)"/>
<path d="M0 0 C0 0.33 0 0.66 0 1 C-0.556875 1.09796875 -1.11375 1.1959375 -1.6875 1.296875 C-7.34997421 2.40641387 -11.95967422 4.23699486 -17 7 C-18.33099419 7.67132457 -19.6637299 8.33923951 -21 9 C-16.375 4.125 -16.375 4.125 -13 3 C-13 2.34 -13 1.68 -13 1 C-8.31506124 -1.48887372 -5.0555786 -0.85687773 0 0 Z " fill="#CC623F" transform="translate(201,5)"/>
<path d="M0 0 C0.33 0 0.66 0 1 0 C1.02708567 1.60407328 1.04643483 3.2082785 1.0625 4.8125 C1.07410156 5.70582031 1.08570313 6.59914063 1.09765625 7.51953125 C1 10 1 10 0 13 C-3.375 13.625 -3.375 13.625 -7 14 C-7.66 13.34 -8.32 12.68 -9 12 C-7.02 12 -5.04 12 -3 12 C-2.01 8.04 -1.02 4.08 0 0 Z " fill="#E34B33" transform="translate(182,56)"/>
<path d="M0 0 C2.31 0 4.62 0 7 0 C7 1.65 7 3.3 7 5 C4.36 5 1.72 5 -1 5 C-0.67 3.35 -0.34 1.7 0 0 Z " fill="#F09A63" transform="translate(126,178)"/>
<path d="M0 0 C1.5 1 1.5 1 3 3 C3.33509131 6.01582175 3.55471978 8.09793968 3 11 C1 13.5 1 13.5 -1 15 C-1.99 14.67 -2.98 14.34 -4 14 C-3.51917969 13.59910156 -3.03835937 13.19820312 -2.54296875 12.78515625 C-0.64460685 10.58882362 -0.52479191 9.30108204 -0.3125 6.4375 C-0.21388672 5.25994141 -0.21388672 5.25994141 -0.11328125 4.05859375 C-0.0389187 2.70724678 0 1.35339145 0 0 Z " fill="#F27844" transform="translate(191,29)"/>
<path d="M0 0 C2.87255066 2.42195448 3.70838919 4.59742703 4.6875 8.1875 C4.93886719 9.08855469 5.19023437 9.98960938 5.44921875 10.91796875 C5.63097656 11.60503906 5.81273437 12.29210937 6 13 C5.67 13.33 5.34 13.66 5 14 C4.63239269 16.32817964 4.29758419 18.6618385 4 21 C3.67 21 3.34 21 3 21 C2.92652344 19.7315625 2.92652344 19.7315625 2.8515625 18.4375 C2.43075986 12.05290815 1.80649237 6.14207405 0 0 Z " fill="#E19730" transform="translate(235,55)"/>
<path d="M0 0 C2.125 0 2.125 0 5 1 C6.73620926 2.93147974 8.19672785 4.95091569 9.66796875 7.08984375 C10.99519842 9.11222796 10.99519842 9.11222796 13 11 C10.525 12.485 10.525 12.485 8 14 C7.76216797 12.98679687 7.76216797 12.98679687 7.51953125 11.953125 C6.0854722 6.4704241 5.12605611 3.04792525 0 0 Z " fill="#82302A" transform="translate(97,8)"/>
<path d="M0 0 C1.32 0 2.64 0 4 0 C4 0.66 4 1.32 4 2 C4.66 2.33 5.32 2.66 6 3 C6 3.66 6 4.32 6 5 C3 7 3 7 -1 7 C-1.04254356 5.00045254 -1.04080783 2.99958364 -1 1 C-0.67 0.67 -0.34 0.34 0 0 Z " fill="#E75E41" transform="translate(173,175)"/>
<path d="M0 0 C1.32 0 2.64 0 4 0 C4.33 2.64 4.66 5.28 5 8 C3.35 8 1.7 8 0 8 C0 5.36 0 2.72 0 0 Z " fill="#F5C1AC" transform="translate(103,109)"/>
<path d="M0 0 C4.17799643 2.08899822 4.92391901 3.05544612 7 7 C6.01 7.33 5.02 7.66 4 8 C3.67 7.67 3.34 7.34 3 7 C2.67 8.32 2.34 9.64 2 11 C1.34 11 0.68 11 0 11 C0 7.37 0 3.74 0 0 Z " fill="#FAE8C0" transform="translate(129,92)"/>
<path d="M0 0 C1.98 0 3.96 0 6 0 C6 1.65 6 3.3 6 5 C3.69 5 1.38 5 -1 5 C-0.67 3.35 -0.34 1.7 0 0 Z " fill="#E54B2D" transform="translate(162,177)"/>
<path d="M0 0 C0 3.25558265 -0.24293869 6.442101 -0.5 9.6875 C-0.5928125 10.86699219 -0.685625 12.04648437 -0.78125 13.26171875 C-0.8534375 14.16535156 -0.925625 15.06898437 -1 16 C-1.99 15.67 -2.98 15.34 -4 15 C-3.91245449 13.24908981 -3.80426627 11.49920449 -3.6875 9.75 C-3.62949219 8.77546875 -3.57148437 7.8009375 -3.51171875 6.796875 C-2.95363476 3.74658389 -2.03630224 2.29288724 0 0 Z " fill="#942928" transform="translate(9,46)"/>
<path d="M0 0 C3.88975419 3.59054233 6.89732195 7.73898882 10 12 C9.67 12.66 9.34 13.32 9 14 C6.36 11.03 3.72 8.06 1 5 C0.01 5.495 0.01 5.495 -1 6 C-1.042721 4.33388095 -1.04063832 2.66617115 -1 1 C-0.67 0.67 -0.34 0.34 0 0 Z " fill="#742923" transform="translate(137,49)"/>
<path d="M0 0 C1.98 0 3.96 0 6 0 C6 1.65 6 3.3 6 5 C4.02 5 2.04 5 0 5 C0 3.35 0 1.7 0 0 Z " fill="#F3A698" transform="translate(90,129)"/>
<path d="M0 0 C3.3 0 6.6 0 10 0 C10 2 10 2 8.625 3.625 C7 5 7 5 5 5 C4.67 4.34 4.34 3.68 4 3 C1.97536745 2.34786708 1.97536745 2.34786708 0 2 C0 1.34 0 0.68 0 0 Z " fill="#F39882" transform="translate(83,118)"/>
<path d="M0 0 C1.32 0 2.64 0 4 0 C4 0.66 4 1.32 4 2 C6.97 2 9.94 2 13 2 C13 2.99 13 3.98 13 5 C9.75 5.75 9.75 5.75 6 6 C3.6875 4.1875 3.6875 4.1875 2 2 C1.34 1.34 0.68 0.68 0 0 Z " fill="#BB302B" transform="translate(168,67)"/>
<path d="M0 0 C2.97 1.32 5.94 2.64 9 4 C5.8035914 5.06546953 3.34252724 5.07427838 0 5 C0 4.34 0 3.68 0 3 C-1.98 3 -3.96 3 -6 3 C-6 2.67 -6 2.34 -6 2 C-4.02 2 -2.04 2 0 2 C0 1.34 0 0.68 0 0 Z " fill="#885B54" transform="translate(229,10)"/>
<path d="M0 0 C0.99 1.32 1.98 2.64 3 4 C-0.63 4 -4.26 4 -8 4 C-8 3.01 -8 2.02 -8 1 C-5.17116253 -0.41441874 -3.12623255 -0.31900332 0 0 Z " fill="#BA5C3B" transform="translate(58,5)"/>
<path d="M0 0 C0.99 0 1.98 0 3 0 C2.67 2.31 2.34 4.62 2 7 C0.68 7 -0.64 7 -2 7 C-1.34 4.69 -0.68 2.38 0 0 Z " fill="#FBEDEC" transform="translate(195,161)"/>
<path d="M0 0 C0.99 0 1.98 0 3 0 C3 1.32 3 2.64 3 4 C3.66 4 4.32 4 5 4 C5 4.66 5 5.32 5 6 C4.34 6 3.68 6 3 6 C2.67 6.99 2.34 7.98 2 9 C1.34 9 0.68 9 0 9 C0 6.03 0 3.06 0 0 Z " fill="#E65327" transform="translate(138,86)"/>
<path d="M0 0 C0.99 0 1.98 0 3 0 C3 1.65 3 3.3 3 5 C2.01 5 1.02 5 0 5 C0 5.66 0 6.32 0 7 C-0.66 7 -1.32 7 -2 7 C-2 5.35 -2 3.7 -2 2 C-1.34 2 -0.68 2 0 2 C0 1.34 0 0.68 0 0 Z " fill="#F4B599" transform="translate(108,118)"/>
<path d="M0 0 C2.25 0.0625 2.25 0.0625 5 1 C6.86135162 3.24865149 7.78061322 5.27982948 9 8 C8.67 8.99 8.34 9.98 8 11 C6 10 6 10 5.25390625 8.22265625 C4.79396652 6.78566942 4.33562563 5.34816985 3.87890625 3.91015625 C3.04040098 1.64848147 3.04040098 1.64848147 0 0 Z " fill="#792C25" transform="translate(111,17)"/>
<path d="M0 0 C0.33 0.66 0.66 1.32 1 2 C1.53625 1.79375 2.0725 1.5875 2.625 1.375 C5.83267308 0.8685253 8.01317066 1.84599775 11 3 C10.67 3.99 10.34 4.98 10 6 C10 5.34 10 4.68 10 4 C8.906875 4.020625 7.81375 4.04125 6.6875 4.0625 C3 4 3 4 0 3 C0 2.01 0 1.02 0 0 Z " fill="#EE8B5E" transform="translate(146,173)"/>
<path d="M0 0 C1.65 0 3.3 0 5 0 C5.33 0.99 5.66 1.98 6 3 C3.35261084 4.4606285 2.10551666 5 -1 5 C-0.67 3.35 -0.34 1.7 0 0 Z " fill="#E5492B" transform="translate(174,169)"/>
<path d="M0 0 C1.32 0 2.64 0 4 0 C5 3 5 3 4.0625 5.1875 C3.711875 5.785625 3.36125 6.38375 3 7 C3 5.68 3 4.36 3 3 C2.01 3.33 1.02 3.66 0 4 C-2.6875 3.5625 -2.6875 3.5625 -5 3 C-5 2.67 -5 2.34 -5 2 C-3.35 2 -1.7 2 0 2 C0 1.34 0 0.68 0 0 Z " fill="#F5BDB8" transform="translate(79,129)"/>
<path d="M0 0 C0 0.66 0 1.32 0 2 C-0.78375 2.20625 -1.5675 2.4125 -2.375 2.625 C-5.30916286 3.80676612 -5.30916286 3.80676612 -6.3125 7.125 C-6.539375 8.07375 -6.76625 9.0225 -7 10 C-7.33 10 -7.66 10 -8 10 C-8.32899743 6.38102827 -8.44576634 4.60496861 -6.25 1.625 C-4 0 -4 0 0 0 Z " fill="#AA5F4A" transform="translate(18,36)"/>
<path d="M0 0 C-2.88698521 1.4434926 -4.89469232 0.63373626 -8 0 C-8.99 -0.33 -9.98 -0.66 -11 -1 C-11 -1.66 -11 -2.32 -11 -3 C-6.06995512 -4.74001584 -3.98367078 -3.05723572 0 0 Z " fill="#7B312C" transform="translate(256,29)"/>
<path d="M0 0 C2.97 0 5.94 0 9 0 C9 1.65 9 3.3 9 5 C8.67 4.34 8.34 3.68 8 3 C5.87423218 2.53348793 5.87423218 2.53348793 3.4375 2.375 C2.61121094 2.30023438 1.78492188 2.22546875 0.93359375 2.1484375 C0.29550781 2.09945312 -0.34257812 2.05046875 -1 2 C-0.67 1.34 -0.34 0.68 0 0 Z " fill="#E86448" transform="translate(165,169)"/>
<path d="M0 0 C1.32 0.33 2.64 0.66 4 1 C4 1.66 4 2.32 4 3 C5.98 3 7.96 3 10 3 C9.67 3.66 9.34 4.32 9 5 C6.69 4.67 4.38 4.34 2 4 C1.67 4.66 1.34 5.32 1 6 C0.67 4.02 0.34 2.04 0 0 Z " fill="#98382F" transform="translate(117,27)"/>
<path d="M0 0 C2.97 0.33 5.94 0.66 9 1 C9 1.66 9 2.32 9 3 C5.7 3 2.4 3 -1 3 C-0.67 2.01 -0.34 1.02 0 0 Z " fill="#E56E45" transform="translate(29,18)"/>
<path d="M0 0 C0.33 0.66 0.66 1.32 1 2 C1.66 2 2.32 2 3 2 C3.33 1.34 3.66 0.68 4 0 C4 1.32 4 2.64 4 4 C4.66 4.33 5.32 4.66 6 5 C5.34 5 4.68 5 4 5 C3.67 5.66 3.34 6.32 3 7 C3 6.34 3 5.68 3 5 C1.02 5 -0.96 5 -3 5 C-2.01 4.34 -1.02 3.68 0 3 C0 2.01 0 1.02 0 0 Z " fill="#FADEDA" transform="translate(87,121)"/>
<path d="M0 0 C1.65 0 3.3 0 5 0 C4.67 0.99 4.34 1.98 4 3 C4.99 3.33 5.98 3.66 7 4 C4.69 4 2.38 4 0 4 C0 2.68 0 1.36 0 0 Z " fill="#E74944" transform="translate(69,121)"/>
<path d="M0 0 C1.1055189 0.93590504 2.20935453 1.87379858 3.3125 2.8125 C3.92738281 3.33457031 4.54226562 3.85664062 5.17578125 4.39453125 C6.85424679 5.87172469 8.43882034 7.40039131 10 9 C7 9 7 9 5.17578125 7.5390625 C4.56089844 6.90742187 3.94601563 6.27578125 3.3125 5.625 C2.68988281 4.99851562 2.06726563 4.37203125 1.42578125 3.7265625 C0 2 0 2 0 0 Z " fill="#E2982F" transform="translate(170,95)"/>
<path d="M0 0 C0.99 0.33 1.98 0.66 3 1 C3 1.66 3 2.32 3 3 C3.99 3.33 4.98 3.66 6 4 C6 4.66 6 5.32 6 6 C4.35 6 2.7 6 1 6 C0.67 4.02 0.34 2.04 0 0 Z " fill="#F5BB52" transform="translate(90,168)"/>
<path d="M0 0 C0.99 0 1.98 0 3 0 C3 2.31 3 4.62 3 7 C2.34 7 1.68 7 1 7 C0.67 4.69 0.34 2.38 0 0 Z " fill="#E64543" transform="translate(68,129)"/>
<path d="M0 0 C0.66 0 1.32 0 2 0 C2 2.31 2 4.62 2 7 C0.35 7 -1.3 7 -3 7 C-3 6.34 -3 5.68 -3 5 C-2.01 4.34 -1.02 3.68 0 3 C0 2.01 0 1.02 0 0 Z " fill="#F29178" transform="translate(94,121)"/>
<path d="M0 0 C1.32 0 2.64 0 4 0 C4 0.99 4 1.98 4 3 C4.99 3.33 5.98 3.66 7 4 C4.69 4 2.38 4 0 4 C0 2.68 0 1.36 0 0 Z " fill="#F1897A" transform="translate(83,121)"/>
<path d="M0 0 C2 1.25 2 1.25 4 3 C4 4.32 4 5.64 4 7 C3.01 7 2.02 7 1 7 C0.67 4.69 0.34 2.38 0 0 Z " fill="#B14923" transform="translate(151,68)"/>
<path d="M0 0 C0.33 0 0.66 0 1 0 C1.042721 1.66611905 1.04063832 3.33382885 1 5 C0.67 5.33 0.34 5.66 0 6 C-2.33944736 5.71269945 -4.6739143 5.38063221 -7 5 C-7 4.67 -7 4.34 -7 4 C-5.02 4 -3.04 4 -1 4 C-0.67 2.68 -0.34 1.36 0 0 Z " fill="#F17A44" transform="translate(180,64)"/>
<path d="M0 0 C1.42944945 2.35438733 2.08661261 3.48032433 1.625 6.25 C1.41875 6.8275 1.2125 7.405 1 8 C0.01 7.67 -0.98 7.34 -2 7 C-1.34 4.69 -0.68 2.38 0 0 Z " fill="#F4B53C" transform="translate(29,61)"/>
<path d="M0 0 C1.65 0 3.3 0 5 0 C5 0.66 5 1.32 5 2 C4.34 2 3.68 2 3 2 C3 2.66 3 3.32 3 4 C1.02 4 -0.96 4 -3 4 C-2.34 3.67 -1.68 3.34 -1 3 C-0.67 2.01 -0.34 1.02 0 0 Z " fill="#FDEECC" transform="translate(156,63)"/>
<path d="M0 0 C0.66 0 1.32 0 2 0 C1.67 1.65 1.34 3.3 1 5 C-0.98 5 -2.96 5 -5 5 C-5 4.34 -5 3.68 -5 3 C-4.360625 2.87625 -3.72125 2.7525 -3.0625 2.625 C-2.0415625 2.315625 -2.0415625 2.315625 -1 2 C-0.67 1.34 -0.34 0.68 0 0 Z " fill="#E96F37" transform="translate(157,166)"/>
</svg>
